<svg xmlns="http://www.w3.org/2000/svg" xmlns:xlink="http://www.w3.org/1999/xlink" width="500" zoomAndPan="magnify" viewBox="0 0 375 225" height="300" preserveAspectRatio="xMidYMid meet" version="1.0"><path fill="#0b371f" d="M 129.117188 12.050781 L 147.628906 54.664062 L 151.699219 27.132812 C 151.859375 25.933594 152.019531 24.816406 152.097656 23.699219 C 152.175781 22.582031 152.257812 21.546875 152.257812 20.585938 C 152.257812 18.753906 151.859375 17.554688 151.058594 16.996094 C 150.261719 16.359375 148.425781 16.039062 145.472656 16.039062 L 146.03125 12.128906 L 166.300781 12.128906 L 165.742188 16.039062 L 164.945312 16.039062 C 162.710938 16.039062 161.117188 16.675781 160.078125 17.875 C 159.039062 19.070312 158.164062 22.023438 157.285156 26.8125 L 149.625 69.824219 L 142.121094 69.824219 L 120.738281 21.144531 L 115.867188 51.550781 C 115.628906 53.226562 115.390625 54.820312 115.308594 56.339844 C 115.152344 57.855469 115.152344 59.289062 115.152344 60.488281 C 115.152344 62.242188 115.550781 63.441406 116.347656 64.078125 C 117.144531 64.71875 118.742188 65.035156 121.214844 65.035156 L 121.855469 65.035156 L 121.535156 68.945312 L 100.625 68.945312 L 101.105469 65.035156 C 101.34375 65.035156 101.585938 65.117188 101.824219 65.117188 C 102.0625 65.117188 102.460938 65.117188 102.859375 65.117188 C 105.097656 65.117188 106.773438 64.398438 107.808594 62.882812 C 108.847656 61.445312 109.722656 58.492188 110.441406 54.183594 L 115.230469 25.214844 C 115.390625 24.179688 115.550781 23.222656 115.628906 22.261719 C 115.710938 21.304688 115.789062 20.429688 115.789062 19.710938 C 115.789062 18.433594 115.390625 17.476562 114.511719 16.917969 C 113.632812 16.359375 112.039062 16.117188 109.804688 16.117188 L 110.363281 12.207031 L 129.117188 12.207031 Z M 129.117188 12.050781 " fill-opacity="1" fill-rule="nonzero"/><path fill="#0b371f" d="M 187.210938 27.53125 C 191.917969 27.53125 195.667969 28.964844 198.460938 31.757812 C 201.175781 34.632812 202.609375 38.460938 202.609375 43.410156 C 202.609375 46.683594 201.972656 49.953125 200.695312 53.144531 C 199.417969 56.339844 197.664062 59.289062 195.347656 61.925781 C 193.035156 64.558594 190.480469 66.550781 187.6875 67.988281 C 184.894531 69.34375 181.941406 70.0625 178.832031 70.0625 C 174.203125 70.0625 170.453125 68.628906 167.660156 65.675781 C 164.867188 62.722656 163.507812 58.8125 163.507812 53.945312 C 163.507812 50.832031 164.066406 47.71875 165.105469 44.6875 C 166.144531 41.65625 167.738281 38.941406 169.734375 36.386719 C 172.046875 33.433594 174.761719 31.199219 177.632812 29.765625 C 180.507812 28.25 183.699219 27.53125 187.210938 27.53125 Z M 191.28125 40.539062 C 191.28125 37.34375 190.800781 35.03125 189.921875 33.515625 C 188.964844 32 187.527344 31.199219 185.613281 31.199219 C 184.257812 31.199219 182.980469 31.679688 181.785156 32.636719 C 180.585938 33.59375 179.550781 34.953125 178.589844 36.785156 C 177.316406 39.339844 176.199219 42.53125 175.398438 46.203125 C 174.601562 49.875 174.203125 53.546875 174.203125 57.214844 C 174.203125 60.25 174.679688 62.484375 175.558594 63.917969 C 176.515625 65.355469 177.953125 66.074219 179.867188 66.074219 C 183.140625 66.074219 185.851562 63.679688 188.007812 58.890625 C 190.164062 54.023438 191.28125 47.960938 191.28125 40.539062 Z M 191.28125 40.539062 " fill-opacity="1" fill-rule="nonzero"/><path fill="#0b371f" d="M 223.28125 29.84375 L 231.816406 29.84375 L 231.417969 34.632812 L 222.5625 34.632812 L 218.09375 60.167969 C 218.011719 60.566406 217.933594 60.886719 217.933594 61.207031 C 217.933594 61.523438 217.851562 61.765625 217.851562 62.003906 C 217.851562 62.640625 217.933594 63.042969 218.171875 63.359375 C 218.410156 63.679688 218.730469 63.839844 219.210938 63.839844 C 220.085938 63.839844 222.878906 61.765625 227.507812 57.613281 L 227.828125 57.296875 L 230.0625 60.167969 C 227.109375 63.359375 224.316406 65.753906 221.683594 67.351562 C 219.050781 68.945312 216.578125 69.746094 214.261719 69.746094 C 212.265625 69.746094 210.75 69.265625 209.632812 68.226562 C 208.597656 67.191406 208.039062 65.675781 208.039062 63.757812 C 208.039062 63.199219 208.117188 62.324219 208.277344 61.125 C 208.4375 59.847656 208.597656 58.492188 208.914062 56.898438 L 212.746094 34.550781 L 205.402344 34.550781 L 206.121094 29.765625 L 213.382812 29.765625 L 216.417969 18.753906 L 225.433594 18.753906 Z M 223.28125 29.84375 " fill-opacity="1" fill-rule="nonzero"/><path fill="#0b371f" d="M 165.503906 77.324219 L 165.027344 81.234375 C 162.390625 81.316406 160.636719 81.714844 159.597656 82.59375 C 158.5625 83.46875 157.765625 85.386719 157.285156 88.496094 L 152.257812 116.585938 C 151.058594 123.449219 148.90625 128.238281 145.953125 130.949219 C 142.921875 133.664062 138.453125 135.101562 132.46875 135.101562 C 128.078125 135.101562 124.566406 134.144531 122.09375 132.148438 C 119.539062 130.152344 118.34375 127.441406 118.34375 124.089844 C 118.34375 121.613281 119.0625 119.539062 120.578125 117.863281 C 122.09375 116.1875 123.929688 115.390625 126.164062 115.390625 C 128.316406 115.390625 130.152344 116.109375 131.589844 117.542969 C 133.027344 118.980469 133.742188 120.816406 133.742188 123.050781 C 133.503906 123.050781 133.265625 122.972656 132.867188 122.972656 C 132.46875 122.972656 132.226562 122.890625 132.148438 122.890625 C 130.871094 122.890625 129.753906 123.289062 128.957031 124.089844 C 128.15625 124.886719 127.757812 125.921875 127.757812 127.199219 C 127.757812 128.476562 128.15625 129.433594 129.035156 130.152344 C 129.832031 130.871094 130.949219 131.269531 132.386719 131.269531 C 134.382812 131.269531 135.898438 130.390625 137.015625 128.636719 C 138.132812 126.882812 139.089844 123.609375 139.96875 118.820312 L 145.316406 88.976562 C 145.472656 88.257812 145.554688 87.621094 145.632812 86.980469 C 145.714844 86.34375 145.714844 85.785156 145.714844 85.304688 C 145.714844 83.867188 145.234375 82.910156 144.277344 82.273438 C 143.320312 81.632812 141.5625 81.316406 139.011719 81.15625 L 139.570312 77.246094 L 165.503906 77.246094 Z M 165.503906 77.324219 " fill-opacity="1" fill-rule="nonzero"/><path fill="#0b371f" d="M 182.820312 92.726562 L 176.039062 123.128906 C 175.878906 123.929688 175.71875 124.566406 175.640625 125.207031 C 175.558594 125.84375 175.558594 126.324219 175.558594 126.800781 C 175.558594 127.679688 175.71875 128.398438 176.117188 128.875 C 176.4375 129.355469 176.996094 129.59375 177.714844 129.59375 C 179.867188 129.59375 182.34375 127.359375 185.292969 122.890625 C 188.246094 118.421875 190.480469 113.074219 191.996094 106.691406 L 195.109375 93.765625 L 205.246094 93.765625 L 198.0625 124.488281 C 197.824219 125.445312 197.664062 126.164062 197.582031 126.722656 C 197.503906 127.28125 197.425781 127.597656 197.425781 127.839844 C 197.425781 128.238281 197.582031 128.558594 197.824219 128.875 C 198.0625 129.117188 198.382812 129.273438 198.78125 129.273438 C 199.417969 129.273438 200.21875 128.875 201.175781 128.078125 C 202.210938 127.28125 203.886719 125.605469 206.28125 123.128906 L 208.597656 125.921875 C 205.5625 129.195312 202.769531 131.589844 200.296875 133.027344 C 197.824219 134.542969 195.429688 135.261719 193.113281 135.261719 C 191.359375 135.261719 190.003906 134.78125 189.125 133.902344 C 188.167969 133.027344 187.6875 131.75 187.6875 130.152344 C 187.6875 129.273438 187.769531 128.316406 187.929688 127.199219 C 188.085938 126.164062 188.40625 125.046875 188.726562 123.847656 L 188.167969 123.769531 C 186.09375 127.519531 183.777344 130.3125 181.144531 132.308594 C 178.511719 134.300781 175.796875 135.261719 172.925781 135.261719 C 170.613281 135.261719 168.777344 134.703125 167.5 133.503906 C 166.222656 132.308594 165.585938 130.710938 165.585938 128.714844 C 165.585938 127.679688 165.664062 126.5625 165.824219 125.285156 C 165.984375 124.089844 166.222656 122.730469 166.460938 121.296875 L 170.132812 103.179688 C 170.292969 102.304688 170.453125 101.746094 170.453125 101.503906 C 170.453125 101.265625 170.53125 101.027344 170.53125 100.867188 C 170.53125 99.589844 169.015625 98.871094 165.984375 98.632812 C 165.265625 98.550781 164.707031 98.550781 164.308594 98.550781 L 164.945312 95.039062 Z M 182.820312 92.726562 " fill-opacity="1" fill-rule="nonzero"/><path fill="#0b371f" d="M 241.15625 106.371094 L 237.085938 106.371094 L 237.085938 105.65625 C 237.085938 102.621094 236.367188 100.308594 235.011719 98.632812 C 233.652344 97.035156 231.660156 96.160156 229.105469 96.160156 C 227.347656 96.160156 225.914062 96.636719 224.796875 97.59375 C 223.679688 98.550781 223.121094 99.75 223.121094 101.1875 C 223.121094 102.144531 223.359375 103.019531 223.917969 103.738281 C 224.476562 104.457031 225.671875 105.414062 227.507812 106.53125 L 232.457031 109.566406 C 235.808594 111.558594 238.121094 113.554688 239.480469 115.390625 C 240.835938 117.304688 241.554688 119.460938 241.554688 121.933594 C 241.554688 126.003906 240.117188 129.195312 237.246094 131.507812 C 234.371094 133.824219 230.382812 135.019531 225.273438 135.019531 C 222.800781 135.019531 220.40625 134.703125 218.09375 134.144531 C 215.777344 133.585938 213.542969 132.707031 211.308594 131.589844 L 211.949219 118.980469 L 216.175781 118.980469 C 216.175781 123.210938 216.976562 126.402344 218.492188 128.558594 C 220.007812 130.710938 222.320312 131.828125 225.273438 131.828125 C 227.429688 131.828125 229.183594 131.269531 230.542969 130.074219 C 231.898438 128.875 232.535156 127.359375 232.535156 125.445312 C 232.535156 124.246094 232.058594 123.128906 231.179688 122.011719 C 230.300781 120.976562 228.867188 119.859375 226.871094 118.742188 L 222.082031 116.027344 C 219.527344 114.671875 217.695312 113.074219 216.417969 111.242188 C 215.21875 109.484375 214.582031 107.410156 214.582031 105.097656 C 214.582031 101.585938 215.9375 98.632812 218.570312 96.316406 C 221.285156 94.003906 224.636719 92.804688 228.707031 92.804688 C 231.339844 92.804688 233.734375 93.046875 235.886719 93.523438 C 238.042969 94.003906 240.195312 94.800781 242.351562 95.839844 Z M 241.15625 106.371094 " fill-opacity="1" fill-rule="nonzero"/><path fill="#0b371f" d="M 265.8125 95.121094 L 274.351562 95.121094 L 273.953125 99.910156 L 265.015625 99.910156 L 260.546875 125.445312 C 260.464844 125.84375 260.386719 126.164062 260.386719 126.480469 C 260.386719 126.800781 260.308594 127.039062 260.308594 127.28125 C 260.308594 127.917969 260.386719 128.316406 260.625 128.636719 C 260.867188 128.957031 261.183594 129.117188 261.664062 129.117188 C 262.542969 129.117188 265.335938 127.039062 269.960938 122.890625 L 270.28125 122.570312 L 272.515625 125.445312 C 269.5625 128.636719 266.769531 131.03125 264.136719 132.625 C 261.503906 134.222656 259.03125 135.019531 256.714844 135.019531 C 254.71875 135.019531 253.203125 134.542969 252.085938 133.503906 C 251.050781 132.46875 250.492188 130.949219 250.492188 129.035156 C 250.492188 128.476562 250.570312 127.597656 250.730469 126.402344 C 250.890625 125.125 251.050781 123.769531 251.367188 122.171875 L 255.199219 99.828125 L 247.859375 99.828125 L 248.574219 95.042969 L 255.835938 95.042969 L 258.871094 84.027344 L 267.886719 84.027344 Z M 265.8125 95.121094 " fill-opacity="1" fill-rule="nonzero"/><path fill="#0b371f" d="M 77.007812 160 L 72.9375 160 L 72.9375 159.757812 C 72.9375 155.289062 72.058594 151.859375 70.222656 149.464844 C 68.386719 147.070312 65.835938 145.875 62.402344 145.875 C 59.609375 145.875 57.296875 146.671875 55.539062 148.347656 C 53.703125 149.945312 52.828125 152.019531 52.828125 154.492188 C 52.828125 156.40625 53.386719 158.164062 54.503906 159.597656 C 55.621094 161.035156 58.253906 163.03125 62.402344 165.585938 C 67.828125 168.9375 71.421875 171.886719 73.097656 174.363281 C 74.851562 176.835938 75.648438 179.789062 75.648438 183.21875 C 75.648438 188.804688 73.734375 193.035156 69.902344 196.066406 C 66.074219 199.101562 60.566406 200.535156 53.386719 200.535156 C 50.511719 200.535156 47.71875 200.296875 44.847656 199.738281 C 41.972656 199.261719 39.339844 198.542969 36.867188 197.585938 L 38.222656 180.507812 L 42.214844 180.507812 C 42.214844 180.746094 42.214844 180.984375 42.214844 181.304688 C 42.214844 181.625 42.214844 181.863281 42.214844 182.101562 C 42.214844 186.730469 43.332031 190.320312 45.484375 192.957031 C 47.71875 195.589844 50.671875 196.867188 54.582031 196.867188 C 57.773438 196.867188 60.40625 195.910156 62.402344 194.074219 C 64.398438 192.238281 65.355469 189.84375 65.355469 186.8125 C 65.355469 184.734375 64.71875 182.902344 63.441406 181.226562 C 62.164062 179.550781 59.53125 177.394531 55.621094 174.761719 C 55.300781 174.523438 54.742188 174.121094 54.023438 173.722656 C 46.203125 168.535156 42.292969 163.269531 42.292969 157.921875 C 42.292969 153.054688 44.128906 149.144531 47.71875 146.113281 C 51.308594 143.082031 56.019531 141.566406 61.925781 141.566406 C 64.316406 141.566406 66.953125 141.804688 69.664062 142.28125 C 72.457031 142.761719 75.25 143.480469 78.203125 144.359375 Z M 77.007812 160 " fill-opacity="1" fill-rule="nonzero"/><path fill="#0b371f" d="M 100.226562 158.003906 L 93.445312 188.40625 C 93.285156 189.203125 93.125 189.84375 93.046875 190.480469 C 92.964844 191.121094 92.964844 191.597656 92.964844 192.078125 C 92.964844 192.957031 93.125 193.671875 93.523438 194.152344 C 93.84375 194.632812 94.402344 194.871094 95.121094 194.871094 C 97.273438 194.871094 99.75 192.636719 102.703125 188.167969 C 105.65625 183.699219 107.890625 178.351562 109.40625 171.96875 L 112.515625 159.039062 L 122.652344 159.039062 L 115.46875 189.761719 C 115.230469 190.722656 115.070312 191.4375 114.992188 191.996094 C 114.910156 192.554688 114.832031 192.875 114.832031 193.113281 C 114.832031 193.515625 114.992188 193.832031 115.230469 194.152344 C 115.46875 194.390625 115.789062 194.550781 116.1875 194.550781 C 116.828125 194.550781 117.625 194.152344 118.582031 193.355469 C 119.621094 192.554688 121.296875 190.878906 123.6875 188.40625 L 126.003906 191.199219 C 122.972656 194.472656 120.179688 196.867188 117.703125 198.300781 C 115.230469 199.820312 112.835938 200.535156 110.523438 200.535156 C 108.765625 200.535156 107.410156 200.058594 106.53125 199.179688 C 105.574219 198.300781 105.09375 197.023438 105.09375 195.429688 C 105.09375 194.550781 105.175781 193.59375 105.335938 192.476562 C 105.496094 191.4375 105.8125 190.320312 106.132812 189.125 L 105.574219 189.046875 C 103.5 192.796875 101.183594 195.589844 98.550781 197.582031 C 95.917969 199.578125 93.207031 200.535156 90.332031 200.535156 C 88.019531 200.535156 86.183594 199.976562 84.90625 198.78125 C 83.628906 197.582031 82.992188 195.988281 82.992188 193.992188 C 82.992188 192.957031 83.070312 191.839844 83.230469 190.5625 C 83.390625 189.363281 83.628906 188.007812 83.867188 186.570312 L 87.539062 168.457031 C 87.699219 167.578125 87.859375 167.019531 87.859375 166.78125 C 87.859375 166.542969 87.9375 166.300781 87.9375 166.144531 C 87.9375 164.867188 86.421875 164.148438 83.390625 163.910156 C 82.671875 163.828125 82.113281 163.828125 81.714844 163.828125 L 82.351562 160.316406 Z M 100.226562 158.003906 " fill-opacity="1" fill-rule="nonzero"/><path fill="#0b371f" d="M 134.78125 171.089844 C 135.019531 169.734375 135.179688 168.777344 135.179688 168.21875 C 135.261719 167.660156 135.261719 167.261719 135.261719 166.859375 C 135.261719 165.742188 134.941406 165.027344 134.300781 164.625 C 133.664062 164.226562 132.386719 164.066406 130.472656 164.066406 L 128.714844 164.066406 L 129.195312 160.238281 L 147.148438 158.003906 L 143.558594 172.046875 C 146.433594 167.339844 149.304688 163.828125 152.257812 161.59375 C 155.210938 159.28125 158.324219 158.164062 161.59375 158.164062 C 163.910156 158.164062 165.585938 158.800781 166.78125 160.15625 C 167.976562 161.515625 168.535156 163.429688 168.535156 165.984375 C 168.535156 166.78125 168.378906 167.898438 168.136719 169.335938 C 167.898438 170.851562 167.339844 172.925781 166.703125 175.71875 L 163.351562 189.445312 C 163.191406 190.082031 163.109375 190.640625 162.949219 191.039062 C 162.871094 191.519531 162.792969 191.839844 162.792969 192.078125 C 162.792969 192.554688 162.871094 192.875 163.109375 193.113281 C 163.351562 193.355469 163.667969 193.515625 163.988281 193.515625 C 164.625 193.515625 165.34375 193.195312 166.222656 192.636719 C 167.101562 192.078125 168.695312 190.640625 170.929688 188.488281 L 173.324219 190.878906 C 170.210938 193.992188 167.417969 196.308594 165.027344 197.742188 C 162.550781 199.179688 160.316406 199.898438 158.164062 199.898438 C 156.488281 199.898438 155.128906 199.339844 154.09375 198.144531 C 153.054688 196.945312 152.578125 195.347656 152.578125 193.355469 C 152.578125 192.316406 152.734375 190.960938 152.976562 189.363281 C 153.292969 187.769531 153.695312 185.851562 154.332031 183.617188 L 156.648438 175.320312 C 157.445312 172.128906 158.003906 169.972656 158.242188 168.855469 C 158.480469 167.738281 158.5625 166.859375 158.5625 166.300781 C 158.5625 165.503906 158.402344 164.945312 158.003906 164.546875 C 157.683594 164.148438 157.125 163.910156 156.488281 163.910156 C 153.136719 163.910156 149.863281 167.179688 146.589844 173.644531 C 143.320312 180.1875 140.925781 188.644531 139.488281 199.179688 L 129.992188 199.179688 Z M 134.78125 171.089844 " fill-opacity="1" fill-rule="nonzero"/><path fill="#0b371f" d="M 211.148438 191.597656 C 211.148438 191.757812 211.070312 191.996094 211.070312 192.15625 C 211.070312 192.316406 211.070312 192.554688 211.070312 192.796875 C 211.070312 193.273438 211.148438 193.671875 211.390625 193.914062 C 211.628906 194.152344 211.949219 194.3125 212.347656 194.3125 C 212.984375 194.3125 213.785156 193.914062 214.742188 193.195312 C 215.699219 192.476562 216.976562 191.039062 218.730469 188.964844 L 221.046875 191.359375 C 218.8125 194.3125 216.496094 196.546875 214.183594 198.0625 C 211.867188 199.578125 209.554688 200.296875 207.238281 200.296875 C 205.40625 200.296875 203.96875 199.820312 202.929688 198.859375 C 201.972656 197.902344 201.414062 196.46875 201.414062 194.632812 C 201.414062 194.074219 201.492188 193.355469 201.652344 192.476562 C 201.8125 191.597656 202.050781 190.320312 202.453125 188.566406 L 201.652344 188.566406 C 199.660156 192.398438 197.425781 195.269531 194.871094 197.183594 C 192.316406 199.101562 189.445312 200.058594 186.332031 200.058594 C 182.660156 200.058594 179.789062 198.859375 177.714844 196.386719 C 175.640625 193.992188 174.679688 190.5625 174.679688 186.171875 C 174.679688 178.589844 177.394531 172.046875 182.820312 166.382812 C 188.246094 160.796875 194.632812 158.003906 201.972656 158.003906 C 202.609375 158.003906 203.328125 158.003906 204.046875 158.082031 C 204.765625 158.164062 205.5625 158.242188 206.523438 158.402344 L 208.117188 150.261719 C 208.199219 149.945312 208.277344 149.625 208.277344 149.304688 C 208.277344 149.066406 208.355469 148.828125 208.355469 148.585938 C 208.355469 146.832031 206.441406 145.953125 202.609375 145.875 C 201.894531 145.875 201.335938 145.875 201.015625 145.875 L 201.414062 142.121094 C 204.925781 141.644531 208.199219 141.246094 211.230469 140.925781 C 214.261719 140.605469 217.054688 140.289062 219.769531 139.96875 Z M 205.246094 164.546875 C 204.285156 163.828125 203.25 163.269531 202.292969 162.871094 C 201.335938 162.472656 200.375 162.3125 199.339844 162.3125 C 197.582031 162.3125 195.90625 162.949219 194.390625 164.148438 C 192.875 165.34375 191.519531 167.179688 190.320312 169.496094 C 189.125 171.886719 188.085938 174.679688 187.289062 177.875 C 186.492188 181.066406 186.09375 183.9375 186.09375 186.492188 C 186.09375 188.804688 186.492188 190.640625 187.371094 191.839844 C 188.246094 193.035156 189.523438 193.671875 191.199219 193.671875 C 194.230469 193.671875 197.105469 190.960938 199.738281 185.613281 C 202.53125 180.265625 204.367188 173.164062 205.246094 164.546875 Z M 205.246094 164.546875 " fill-opacity="1" fill-rule="nonzero"/><path fill="#0b371f" d="M 256.238281 189.683594 C 256.15625 189.921875 256.15625 190.164062 256.078125 190.480469 C 255.839844 191.917969 255.679688 192.796875 255.679688 193.113281 C 255.679688 193.59375 255.757812 193.914062 255.996094 194.230469 C 256.238281 194.472656 256.476562 194.632812 256.796875 194.632812 C 257.355469 194.632812 257.992188 194.3125 258.789062 193.671875 C 259.589844 193.035156 260.945312 191.597656 262.941406 189.445312 L 265.253906 191.839844 C 262.859375 194.632812 260.546875 196.707031 258.3125 198.0625 C 256.078125 199.417969 253.921875 200.136719 251.847656 200.136719 C 250.011719 200.136719 248.65625 199.738281 247.699219 198.859375 C 246.742188 197.984375 246.339844 196.785156 246.339844 195.109375 C 246.339844 194.3125 246.582031 192.796875 246.980469 190.402344 L 247.058594 189.921875 L 246.261719 190.003906 C 244.027344 193.515625 241.714844 196.148438 239.320312 197.824219 C 236.925781 199.5 234.371094 200.378906 231.578125 200.378906 C 228.066406 200.378906 225.355469 199.179688 223.4375 196.867188 C 221.523438 194.550781 220.566406 191.199219 220.566406 186.96875 C 220.566406 178.910156 223.359375 172.046875 228.867188 166.460938 C 234.371094 160.875 241.15625 158.082031 249.054688 158.082031 C 251.289062 158.082031 253.523438 158.242188 255.679688 158.640625 C 257.832031 159.039062 259.90625 159.597656 261.824219 160.238281 Z M 251.449219 163.351562 C 250.730469 162.949219 250.09375 162.710938 249.375 162.550781 C 248.65625 162.390625 247.9375 162.3125 247.140625 162.3125 C 243.230469 162.3125 239.796875 164.785156 236.765625 169.652344 C 233.734375 174.601562 232.21875 180.1875 232.21875 186.652344 C 232.21875 189.046875 232.617188 190.878906 233.335938 192.078125 C 234.050781 193.273438 235.089844 193.914062 236.527344 193.914062 C 239.558594 193.914062 242.351562 191.199219 244.984375 185.851562 C 247.699219 180.425781 249.773438 172.925781 251.449219 163.351562 Z M 251.449219 163.351562 " fill-opacity="1" fill-rule="nonzero"/><path fill="#0b371f" d="M 279.300781 158.242188 C 280.894531 161.195312 282.410156 165.183594 283.925781 170.210938 C 285.445312 175.238281 286.960938 181.542969 288.554688 189.203125 L 288.953125 189.203125 C 290.789062 185.136719 292.304688 181.144531 293.34375 177.234375 C 294.382812 173.324219 294.941406 170.132812 294.941406 167.5 C 294.941406 166.222656 294.539062 165.34375 293.664062 164.785156 C 292.785156 164.308594 291.1875 163.988281 288.875 163.988281 L 288.078125 163.988281 L 288.714844 160.398438 L 304.996094 158.480469 C 304.996094 158.640625 304.996094 158.960938 304.996094 159.28125 C 304.996094 159.679688 304.996094 159.917969 304.996094 160.078125 C 304.996094 163.589844 303.71875 168.457031 301.164062 174.601562 C 298.609375 180.746094 295.257812 186.890625 291.03125 193.035156 C 286.242188 199.976562 281.851562 205.085938 277.863281 208.515625 C 273.871094 211.867188 270.203125 213.625 266.851562 213.625 C 265.253906 213.625 264.058594 213.382812 263.339844 212.984375 C 262.621094 212.585938 262.222656 211.949219 262.222656 210.992188 C 262.222656 210.273438 262.460938 209.394531 262.941406 208.199219 C 263.417969 207.082031 264.457031 205.164062 265.972656 202.453125 C 267.011719 203.25 268.046875 203.886719 269.003906 204.289062 C 270.042969 204.6875 271 204.847656 272.039062 204.847656 C 273.394531 204.847656 274.832031 204.527344 276.105469 203.808594 C 277.464844 203.089844 278.898438 201.972656 280.496094 200.378906 C 279.300781 193.113281 277.941406 186.410156 276.425781 180.347656 C 274.910156 174.28125 273.472656 169.894531 272.277344 167.179688 C 271.320312 165.265625 268.925781 164.308594 264.933594 164.226562 C 264.695312 164.226562 264.535156 164.226562 264.457031 164.226562 L 264.855469 160.398438 Z M 279.300781 158.242188 " fill-opacity="1" fill-rule="nonzero"/><path fill="#0b371f" d="M 336.675781 171.648438 L 332.605469 171.648438 L 332.605469 170.929688 C 332.605469 167.898438 331.886719 165.585938 330.53125 163.910156 C 329.175781 162.3125 327.179688 161.433594 324.625 161.433594 C 322.871094 161.433594 321.433594 161.914062 320.316406 162.871094 C 319.199219 163.828125 318.640625 165.027344 318.640625 166.460938 C 318.640625 167.417969 318.878906 168.296875 319.4375 169.015625 C 319.996094 169.734375 321.195312 170.691406 323.03125 171.808594 L 327.976562 174.839844 C 331.328125 176.835938 333.644531 178.832031 335 180.667969 C 336.355469 182.582031 337.074219 184.734375 337.074219 187.210938 C 337.074219 191.28125 335.636719 194.472656 332.765625 196.785156 C 329.890625 199.101562 325.902344 200.296875 320.796875 200.296875 C 318.320312 200.296875 315.925781 199.976562 313.613281 199.417969 C 311.300781 198.859375 309.066406 197.984375 306.832031 196.867188 L 307.46875 184.257812 L 311.699219 184.257812 C 311.699219 188.488281 312.496094 191.679688 314.011719 193.832031 C 315.527344 195.988281 317.84375 197.105469 320.796875 197.105469 C 322.949219 197.105469 324.707031 196.546875 326.0625 195.347656 C 327.417969 194.152344 328.058594 192.636719 328.058594 190.722656 C 328.058594 189.523438 327.578125 188.40625 326.699219 187.289062 C 325.824219 186.253906 324.386719 185.136719 322.390625 184.019531 L 317.601562 181.304688 C 315.050781 179.949219 313.214844 178.351562 311.9375 176.515625 C 310.742188 174.761719 310.101562 172.6875 310.101562 170.371094 C 310.101562 166.859375 311.457031 163.910156 314.09375 161.59375 C 316.804688 159.28125 320.15625 158.082031 324.226562 158.082031 C 326.859375 158.082031 329.253906 158.324219 331.410156 158.800781 C 333.5625 159.28125 335.71875 160.078125 337.871094 161.117188 Z M 336.675781 171.648438 " fill-opacity="1" fill-rule="nonzero"/></svg>